<?xml version="1.0" encoding="UTF-8" standalone="no"?>
<!-- Created with Inkscape (http://www.inkscape.org/) -->

<svg
   xmlns:dc="http://purl.org/dc/elements/1.1/"
   xmlns:cc="http://creativecommons.org/ns#"
   xmlns:rdf="http://www.w3.org/1999/02/22-rdf-syntax-ns#"
   xmlns:svg="http://www.w3.org/2000/svg"
   xmlns="http://www.w3.org/2000/svg"
   xmlns:sodipodi="http://sodipodi.sourceforge.net/DTD/sodipodi-0.dtd"
   xmlns:inkscape="http://www.inkscape.org/namespaces/inkscape"
   width="24"
   height="6"
   viewBox="0 0 23.999999 6.0000001"
   id="svg2"
   version="1.1"
   inkscape:version="0.91 r13725"
   sodipodi:docname="bah_1.svg">
  <defs
     id="defs4" />
  <sodipodi:namedview
     id="base"
     pagecolor="#ffffff"
     bordercolor="#666666"
     borderopacity="1.0"
     inkscape:pageopacity="0.0"
     inkscape:pageshadow="2"
     inkscape:zoom="45.254834"
     inkscape:cx="9.8594451"
     inkscape:cy="1.8061092"
     inkscape:document-units="px"
     inkscape:current-layer="layer1"
     showgrid="false"
     inkscape:window-width="1551"
     inkscape:window-height="876"
     inkscape:window-x="49"
     inkscape:window-y="24"
     inkscape:window-maximized="1"
     units="px" />
  <metadata
     id="metadata7">
    <rdf:RDF>
      <cc:Work
         rdf:about="">
        <dc:format>image/svg+xml</dc:format>
        <dc:type
           rdf:resource="http://purl.org/dc/dcmitype/StillImage" />
        <dc:title />
      </cc:Work>
    </rdf:RDF>
  </metadata>
  <g
     inkscape:label="Layer 1"
     inkscape:groupmode="layer"
     id="layer1"
     transform="translate(0,-1046.3621)">
    <path
       style="fill:#ffffff;fill-rule:evenodd;stroke:#000000;stroke-width:1.00000143px;stroke-linecap:butt;stroke-linejoin:miter;stroke-opacity:1"
       d="m -0.11026103,1052.8922 c 2.09840173,-0.3425 4.75396903,-2.6014 5.67271143,-3.2875 2.8062813,-2.096 7.0192636,-2.2134 10.1552886,-1.2789 2.690783,0.8018 4.437148,2.4714 5.545096,3.2696 0.763215,0.5499 1.614454,0.9722 2.887438,1.3188 z"
       id="path3385"
       inkscape:connector-curvature="0"
       sodipodi:nodetypes="cssscc" />
    <path
       style="fill:#ffffff"
       d="M 10.40007,6.0324273 2.5124617,6.0268416 2.8097208,5.8454941 C 3.507812,5.4196126 4.2896007,4.8674565 5.2978518,4.0881948 5.9786224,3.5620378 6.1535938,3.4362629 6.4657372,3.2486832 7.6295992,2.5492708 9.0304502,2.1225944 10.708378,1.9564436 c 0.444331,-0.043998 1.84728,-0.036719 2.331243,0.012095 1.923992,0.1940624 3.469231,0.6765433 4.954122,1.5468603 0.662455,0.3882753 1.199563,0.7626592 2.127994,1.4832896 0.742276,0.5761405 0.95896,0.7360582 1.231355,0.908767 l 0.223242,0.1415442 -1.644328,-0.00549 c -0.90438,-0.00302 -5.193751,-0.00801 -9.531936,-0.011079 z"
       id="path3462"
       inkscape:connector-curvature="0"
       transform="translate(-9.5367432e-7,1046.3621)" />
    <path
       style="fill:#ffffff"
       d="m 6.7724961,7.0268192 -6.87479442,-0.00562 -0.0285569,-0.3590427 c -0.0157063,-0.1974733 -0.0294516,-0.4176767 -0.0305453,-0.4893405 l -0.001988,-0.1302981 0.14085586,-0.029079 C 0.73325045,5.8574149 1.793482,5.3447717 2.9182101,4.5915337 3.4903806,4.2083475 3.9176187,3.8951798 4.8305528,3.1897772 5.6140974,2.5843506 5.9803274,2.348284 6.6331567,2.0278448 7.9006814,1.4056842 9.3196642,1.0488174 10.948636,0.94252417 c 0.507149,-0.0330923 1.712379,-0.0145244 2.20147,0.0339162 1.077086,0.10667666 2.097349,0.31606606 3.016252,0.61902796 0.564474,0.1861065 1.010509,0.3713449 1.579942,0.6561491 0.993665,0.4969859 1.785807,1.0205375 3.110231,2.0556506 0.809919,0.6329982 1.11766,0.8400276 1.651691,1.1111633 0.392224,0.1991376 0.894168,0.3981512 1.378171,0.5464251 0.277038,0.08487 0.378276,0.1250329 0.377538,0.1497739 -5.53e-4,0.018594 -0.028,0.2326805 -0.06099,0.4757485 l -0.05998,0.4419417 -5.247839,6.63e-5 c -2.886312,2.21e-5 -8.341497,-0.00247 -12.1226339,-0.00556 l 0,-8.4e-6 z M 21.337063,5.8760659 C 21.045659,5.6860091 20.720663,5.446516 20.172209,5.0176703 18.60222,3.7900691 17.546925,3.1555256 16.265173,2.6683895 15.321961,2.3099175 14.179365,2.0594132 12.973329,1.9466816 12.401859,1.8932647 11.188599,1.8931963 10.653135,1.9465509 9.0544054,2.1058512 7.7226951,2.504322 6.5740088,3.1670963 6.2234084,3.3693872 5.9980075,3.5283161 5.3056402,4.061416 4.2264138,4.8923845 3.4768552,5.4217186 2.8197179,5.8169602 2.6617237,5.9119872 2.5178953,6.0030709 2.5000992,6.0193684 c -0.027061,0.024782 1.533554,0.029632 9.5348788,0.029632 l 9.567236,0 -0.265151,-0.1729342 z"
       id="path3464"
       inkscape:connector-curvature="0"
       transform="translate(-9.5367432e-7,1046.3621)" />
  </g>
</svg>
