<?xml version="1.0" encoding="UTF-8" standalone="no"?>
<!-- Generator: Adobe Illustrator 19.1.0, SVG Export Plug-In . SVG Version: 6.00 Build 0)  -->

<svg
   xmlns:dc="http://purl.org/dc/elements/1.1/"
   xmlns:cc="http://creativecommons.org/ns#"
   xmlns:rdf="http://www.w3.org/1999/02/22-rdf-syntax-ns#"
   xmlns:svg="http://www.w3.org/2000/svg"
   xmlns="http://www.w3.org/2000/svg"
   xmlns:sodipodi="http://sodipodi.sourceforge.net/DTD/sodipodi-0.dtd"
   xmlns:inkscape="http://www.inkscape.org/namespaces/inkscape"
   version="1.1"
   id="Capa_1"
   x="0px"
   y="0px"
   viewBox="0 0 487.901 487.901"
   style="enable-background:new 0 0 487.901 487.901;"
   xml:space="preserve"
   width="512px"
   height="512px"
   inkscape:version="0.91 r13725"
   sodipodi:docname="money22.svg"><metadata
     id="metadata71"><rdf:RDF><cc:Work
         rdf:about=""><dc:format>image/svg+xml</dc:format><dc:type
           rdf:resource="http://purl.org/dc/dcmitype/StillImage" /></cc:Work></rdf:RDF></metadata><defs
     id="defs69" /><sodipodi:namedview
     pagecolor="#ffffff"
     bordercolor="#666666"
     borderopacity="1"
     objecttolerance="10"
     gridtolerance="10"
     guidetolerance="10"
     inkscape:pageopacity="0"
     inkscape:pageshadow="2"
     inkscape:window-width="1551"
     inkscape:window-height="876"
     id="namedview67"
     showgrid="false"
     inkscape:zoom="0.4609375"
     inkscape:cx="262.50847"
     inkscape:cy="256"
     inkscape:window-x="49"
     inkscape:window-y="24"
     inkscape:window-maximized="1"
     inkscape:current-layer="Capa_1" /><g
     id="g3"
     style="fill:#2f3234;fill-opacity:1"><g
       id="g5"
       style="fill:#2f3234;fill-opacity:1"><g
         id="g7"
         style="fill:#2f3234;fill-opacity:1"><g
           id="g9"
           style="fill:#2f3234;fill-opacity:1"><path
             d="M391.2,185.9c0-32.1-26-58.1-58.1-58.1s-58.1,26-58.1,58.1s26,58.1,58.1,58.1C365.2,244,391.2,218,391.2,185.9z       M329.9,225.6c-1.6,0-2.4-0.9-2.4-2.5c0-1.3,0-2.5,0-3.8c0-2.8-0.1-2.9-2.8-3.3c-3.4-0.5-6.7-1.3-9.9-2.8      c-2.4-1.2-2.7-1.8-2-4.4c0.5-1.9,1-3.8,1.6-5.7c0.7-2.2,1.3-2.5,3.3-1.4c3.4,1.8,7.1,2.8,10.9,3.3c2.5,0.3,4.9,0.1,7.2-0.9      c4.3-1.9,4.9-6.8,1.3-9.8c-1.2-1-2.6-1.8-4.1-2.4c-3.7-1.6-7.7-2.9-11.2-5c-5.7-3.4-9.4-8.2-9-15.1c0.5-7.9,4.9-12.8,12.2-15.5      c3-1.1,3-1,3-4.2c0-1.1,0-2.1,0-3.2c0.1-2.4,0.5-2.8,2.8-2.8c0.7,0,1.5,0,2.2,0c5,0,5,0,5,5c0,3.5,0,3.5,3.5,4.1      c2.7,0.4,5.3,1.2,7.8,2.3c1.4,0.6,1.9,1.6,1.5,3c-0.6,2.2-1.2,4.3-1.9,6.5c-0.7,2-1.3,2.3-3.2,1.4c-3.9-1.9-8-2.7-12.3-2.4      c-1.1,0.1-2.2,0.2-3.3,0.7c-3.7,1.6-4.3,5.7-1.2,8.3c1.6,1.3,3.4,2.2,5.3,3c3.3,1.4,6.6,2.7,9.7,4.4c10,5.5,12.7,18,5.6,26.6      c-2.5,3.1-5.8,5.2-9.7,6.2c-1.7,0.5-2.4,1.3-2.4,3.1c0.1,1.7,0,3.4,0,5.1c0,1.5-0.8,2.4-2.3,2.4      C333.6,225.7,331.7,225.7,329.9,225.6z"
             fill="#f39f18"
             id="path11"
             style="fill:#2f3234;fill-opacity:1" /></g></g><g
         id="g13"
         style="fill:#2f3234;fill-opacity:1"><circle
           cx="248.6"
           cy="188.8"
           r="16.1"
           fill="#f39f18"
           id="circle15"
           style="fill:#2f3234;fill-opacity:1" /></g><g
         id="g17"
         style="fill:#2f3234;fill-opacity:1"><circle
           cx="417.7"
           cy="188.8"
           r="16.1"
           fill="#f39f18"
           id="circle19"
           style="fill:#2f3234;fill-opacity:1" /></g><g
         id="g21"
         style="fill:#2f3234;fill-opacity:1"><path
           d="M461.5,91.1H208.4c-14.6,0-26.5,11.9-26.5,26.5V206c3.9-0.2,7.8-0.3,11.8-0.3c3.7,0,7.3,0.1,10.9,0.3v-59.7     c2.1,0.5,4.3,0.8,6.6,0.8c14.8,0,26.9-12,26.9-26.9c0-2.3-0.3-4.5-0.8-6.6h197.1c-0.3,1.6-0.5,3.3-0.5,4.9     c0,14.8,12,26.9,26.9,26.9c1.6,0,3.2-0.2,4.7-0.4v81.5c-1.5-0.3-3.1-0.4-4.7-0.4c-14.8,0-26.9,12-26.9,26.9     c0,1.7,0.2,3.3,0.5,4.9H293.1c0,0.6,0,1.2,0,1.8c0,0.3,0,0.5,0,0.8v20.1h168.3c14.6,0,26.5-11.9,26.5-26.5V117.6     C488,103,476.1,91.1,461.5,91.1z"
           fill="#f39f18"
           id="path23"
           style="fill:#2f3234;fill-opacity:1" /></g><g
         id="g25"
         style="fill:#2f3234;fill-opacity:1"><g
           id="g27"
           style="fill:#2f3234;fill-opacity:1"><path
             d="M27,220.6c14.6,5.5,33.9,8.5,54.3,8.5c10.8,0,21.3-0.9,30.9-2.5c5.3-4,12.1-7.8,20.8-11c8.7-3.2,18.8-5.7,29.6-7.3      v-14.5c0-0.2,0-0.4,0-0.6l0,0c0-0.1,0-0.3,0-0.4v-34c0-0.2,0-0.4,0-0.6l0,0c0-0.1,0-0.3,0-0.4v-34c0-0.2,0-0.4,0-0.6      c0-7.9-4.7-19.1-27-27.5c-14.6-5.6-33.9-8.6-54.3-8.6s-39.7,3-54.3,8.5c-22.3,8.3-27,19.5-27,27.5v34.6c0,0.1,0,0.3,0,0.4l0,0      v34.6c0,0.1,0,0.3,0,0.4l0,0v0.4v34.2v0.4c0,0.1,0,0.3,0,0.4l0,0v34.6c0,0.1,0,0.3,0,0.4l0,0v34.6c0,7.9,4.7,19.1,27,27.5      c14.6,5.5,33.9,8.5,54.3,8.5c4.4,0,8.7-0.1,13-0.4v-3.4v-0.4c0-0.1,0-0.1,0-0.2s0-0.2,0-0.2v-13.7c-4.2,0.3-8.6,0.5-13,0.5      c-18.3,0-35.4-2.6-48-7.3c-12.5-4.7-15.4-9.4-15.4-10.6v-11.3c2.6,1.4,5.7,2.7,9.1,4c14.6,5.5,33.9,8.5,54.3,8.5      c4.4,0,8.7-0.1,13-0.4v-4.3c0-0.1,0-0.1,0-0.2s0-0.2,0-0.2v-13.7c-4.2,0.3-8.6,0.5-13,0.5c-18.3,0-35.4-2.6-48-7.3      c-12.5-4.7-15.4-9.4-15.4-10.6v-11.2c2.6,1.4,5.7,2.7,9.1,4c14.6,5.5,33.9,8.5,54.3,8.5c4.4,0,8.7-0.1,13-0.4V260      c0-4,0.6-9.2,3-14.8c-5.2,0.5-10.5,0.7-16,0.7c-18.3,0-35.4-2.6-48-7.3c-12.5-4.7-15.4-9.4-15.4-10.6v-11.2      C20.6,217.9,23.6,219.3,27,220.6z M33.3,112.4c12.7-4.7,29.8-7.3,48-7.3c18.3,0,35.4,2.6,48,7.3c12.1,4.5,15.1,9,15.3,10.5v0.3      c-0.2,1.5-3.2,6-15.3,10.5c-12.7,4.7-29.8,7.3-48,7.3c-18.3,0-35.4-2.6-48-7.3c-12.5-4.7-15.4-9.4-15.4-10.6      S20.8,117,33.3,112.4z M17.9,146.4c2.6,1.4,5.7,2.7,9.1,4c14.6,5.5,33.9,8.5,54.3,8.5s39.7-3,54.3-8.5c3.4-1.3,6.4-2.6,9.1-4      v11.2l0,0l0,0v0.1c-0.2,1.5-3.2,6-15.3,10.5c-12.7,4.7-29.8,7.3-48,7.3c-18.3,0-35.4-2.6-48-7.3c-12.5-4.7-15.4-9.4-15.4-10.6      v-11.2H17.9z M17.9,181.5c2.6,1.4,5.7,2.7,9.1,4c14.6,5.5,33.9,8.5,54.3,8.5s39.7-3,54.3-8.5c3.4-1.3,6.4-2.6,9.1-4v11.2l0,0      l0,0v0.1c-0.2,1.5-3.2,6-15.3,10.5c-12.7,4.7-29.8,7.3-48,7.3c-18.3,0-35.4-2.6-48-7.3c-12.5-4.7-15.4-9.4-15.4-10.6v-11.2H17.9      z"
             fill="#f39f18"
             id="path29"
             style="fill:#2f3234;fill-opacity:1" /></g></g><g
         id="g31"
         style="fill:#2f3234;fill-opacity:1"><g
           id="g33"
           style="fill:#2f3234;fill-opacity:1"><path
             d="M247.9,232.3c-14.6-5.5-33.9-8.5-54.3-8.5s-39.7,3-54.3,8.5c-22.3,8.3-27,19.5-27,27.5v34.6c0,0.1,0,0.3,0,0.4l0,0v34.6      c0,0.1,0,0.3,0,0.4l0,0v0.4v34.2v0.4c0,7.9,4.7,19.1,27,27.5c14.6,5.5,33.9,8.5,54.3,8.5s39.7-3,54.3-8.5      c22.3-8.3,27-19.5,27-27.5v-0.4l0,0v-34c0-0.2,0-0.4,0-0.6l0,0c0-0.1,0-0.3,0-0.4v-34c0-0.2,0-0.4,0-0.6l0,0c0-0.1,0-0.3,0-0.4      v-34c0-0.2,0-0.4,0-0.6C275,251.9,270.3,240.7,247.9,232.3z M145.6,249.2c12.7-4.7,29.8-7.3,48-7.3c18.3,0,35.4,2.6,48,7.3      c12.1,4.5,15.2,9,15.3,10.5v0.3c-0.2,1.5-3.2,6-15.3,10.5c-12.7,4.7-29.8,7.3-48,7.3c-18.3,0-35.4-2.6-48-7.3      c-12.5-4.7-15.4-9.4-15.4-10.6S133,253.8,145.6,249.2z M241.7,375.2c-12.7,4.7-29.8,7.3-48,7.3c-18.3,0-35.4-2.6-48-7.3      c-12.5-4.7-15.4-9.4-15.4-10.6v-11.2c2.6,1.4,5.7,2.7,9.1,4c14.6,5.5,33.9,8.5,54.3,8.5s39.7-3,54.3-8.5c3.4-1.3,6.4-2.6,9.1-4      v11.2C257,365.8,254.2,370.5,241.7,375.2z M257,329.5L257,329.5v0.1c-0.2,1.5-3.2,6-15.3,10.5c-12.7,4.7-29.8,7.3-48,7.3      c-18.3,0-35.4-2.6-48-7.3c-12.5-4.7-15.4-9.4-15.4-10.6v-11.2c2.6,1.4,5.7,2.7,9.1,4c14.6,5.5,33.9,8.5,54.3,8.5      s39.7-3,54.3-8.5c3.4-1.3,6.4-2.6,9.1-4L257,329.5L257,329.5z M257,294.4L257,294.4v0.1c-0.2,1.5-3.2,6-15.3,10.5      c-12.7,4.7-29.8,7.3-48,7.3c-18.3,0-35.4-2.6-48-7.3c-12.5-4.7-15.4-9.4-15.4-10.6v-11.2c2.6,1.4,5.7,2.7,9.1,4      c14.6,5.5,33.9,8.5,54.3,8.5s39.7-3,54.3-8.5c3.4-1.3,6.4-2.6,9.1-4L257,294.4L257,294.4z"
             fill="#f39f18"
             id="path35"
             style="fill:#2f3234;fill-opacity:1" /></g></g></g></g><g
     id="g37"
     style="fill:#2f3234;fill-opacity:1" /><g
     id="g39"
     style="fill:#2f3234;fill-opacity:1" /><g
     id="g41"
     style="fill:#2f3234;fill-opacity:1" /><g
     id="g43"
     style="fill:#2f3234;fill-opacity:1" /><g
     id="g45"
     style="fill:#2f3234;fill-opacity:1" /><g
     id="g47"
     style="fill:#2f3234;fill-opacity:1" /><g
     id="g49"
     style="fill:#2f3234;fill-opacity:1" /><g
     id="g51"
     style="fill:#2f3234;fill-opacity:1" /><g
     id="g53"
     style="fill:#2f3234;fill-opacity:1" /><g
     id="g55"
     style="fill:#2f3234;fill-opacity:1" /><g
     id="g57"
     style="fill:#2f3234;fill-opacity:1" /><g
     id="g59"
     style="fill:#2f3234;fill-opacity:1" /><g
     id="g61"
     style="fill:#2f3234;fill-opacity:1" /><g
     id="g63"
     style="fill:#2f3234;fill-opacity:1" /><g
     id="g65"
     style="fill:#2f3234;fill-opacity:1" /></svg>