<?xml version="1.0" encoding="UTF-8" standalone="no"?>
<svg
   xmlns:dc="http://purl.org/dc/elements/1.1/"
   xmlns:cc="http://creativecommons.org/ns#"
   xmlns:rdf="http://www.w3.org/1999/02/22-rdf-syntax-ns#"
   xmlns:svg="http://www.w3.org/2000/svg"
   xmlns="http://www.w3.org/2000/svg"
   xmlns:sodipodi="http://sodipodi.sourceforge.net/DTD/sodipodi-0.dtd"
   xmlns:inkscape="http://www.inkscape.org/namespaces/inkscape"
   version="1.1"
   viewBox="0 0 489.6 489.6"
   enable-background="new 0 0 489.6 489.6"
   width="512px"
   height="512px"
   id="svg2"
   inkscape:version="0.91 r13725"
   sodipodi:docname="qweqwe.svg">
  <metadata
     id="metadata16">
    <rdf:RDF>
      <cc:Work
         rdf:about="">
        <dc:format>image/svg+xml</dc:format>
        <dc:type
           rdf:resource="http://purl.org/dc/dcmitype/StillImage" />
      </cc:Work>
    </rdf:RDF>
  </metadata>
  <defs
     id="defs14" />
  <sodipodi:namedview
     pagecolor="#ffffff"
     bordercolor="#666666"
     borderopacity="1"
     objecttolerance="10"
     gridtolerance="10"
     guidetolerance="10"
     inkscape:pageopacity="0"
     inkscape:pageshadow="2"
     inkscape:window-width="1551"
     inkscape:window-height="876"
     id="namedview12"
     showgrid="false"
     inkscape:zoom="0.4609375"
     inkscape:cx="262.50847"
     inkscape:cy="251.66102"
     inkscape:window-x="49"
     inkscape:window-y="24"
     inkscape:window-maximized="1"
     inkscape:current-layer="svg2" />
  <g
     id="g4"
     style="fill:#2f3234;fill-opacity:1">
    <g
       id="g6"
       style="fill:#2f3234;fill-opacity:1">
      <path
         d="m404.35,297.5c27.1-22.3 43.6-55.5 43.6-91.3 0-30.9-11.3-58.9-30.2-79.7v-116.1c0-6.3-4.2-10.4-10.4-10.4h-363.6c-6.3,0-10.4,4.2-10.4,10.4v468.8c0,6.3 4.2,10.4 10.4,10.4h363.5c5.2,0 10.4-4.2 10.4-10.4v-58.6l38.6-13.3-51.9-109.8zm23.8-91.3c-0.1,38.6-21.9,73-56.3,88.6-12.5,5.2-26,8.3-40.6,8.3-53.1,0-96.9-43.8-96.9-96.9s43.8-96.9 96.9-96.9 95.8,42.7 96.9,96.9zm-136.3,110.1l-21.1,93-40.6-14.5 42.2-87.3c6.2,3.5 12.7,6.5 19.5,8.8zm105,152.5h-342.7v-448h342.7v87.6c-18.6-12.6-41.1-19.9-65.6-19.9-27.2,0-52.1,9.1-71.9,24.4v-0.5h-138.6v20.8h118c-15.8,20.1-25.3,45.5-25.3,72.9 0,9.7 1.2,19.1 3.4,28.1h-96.1v20.8h103.4c7.2,15.6 17.7,29.2 30.7,40.2l-28.8,60.9h-105.3v20.8h95.5l-14.3,30.2 84.4,29.2 26.3-115c6,0.9 12.2,1.4 18.5,1.4 4.8,0 9.7-0.3 14.5-0.8l26.2,114.3 25-8.6v41.2zm-9.4-59.4l-20.7-91.4c4.3-1.2 17.6-7 20.2-8.5l41.1,85.3-40.6,14.6z"
         fill="#f39f18"
         id="path8"
         style="fill:#2f3234;fill-opacity:1" />
      <path
         d="m306.15,170.9l-54.2,8.3 39.6,38.5-9.4,54.2 49-24 47.9,25-9.3-54.1 38.5-39.6-54.2-8.3-23.9-49-24,49zm35.4,19.8l22.9,3.1-16.7,16.7 4.3,22.8-20.8-10.4-20.8,11.5 4.2-24-16.8-16.6 22.9-3.1 10.4-20.8 10.4,20.8z"
         fill="#f39f18"
         id="path10"
         style="fill:#2f3234;fill-opacity:1" />
    </g>
  </g>
</svg>
